<svg xmlns="http://www.w3.org/2000/svg" xmlns:xlink="http://www.w3.org/1999/xlink" width="500" zoomAndPan="magnify" viewBox="0 0 375 374.999991" height="500" preserveAspectRatio="xMidYMid meet" version="1.2"><defs><clipPath id="ccc4ba8730"><path d="M 10.003906 10.003906 L 366 10.003906 L 366 366 L 10.003906 366 Z M 10.003906 10.003906 "/></clipPath><clipPath id="bf618c8ba8"><path d="M 10.003906 10.003906 L 366.253906 10.003906 L 366.253906 366.253906 L 10.003906 366.253906 Z M 10.003906 10.003906 "/></clipPath><clipPath id="dd50abded8"><path d="M 40.277344 74.613281 L 80.777344 74.613281 L 80.777344 193 L 40.277344 193 Z M 40.277344 74.613281 "/></clipPath><clipPath id="c60f6a8c2a"><path d="M 40.277344 86.613281 L 40.277344 180.925781 C 40.277344 187.554688 45.652344 192.925781 52.277344 192.925781 L 68.460938 192.925781 C 75.089844 192.925781 80.460938 187.554688 80.460938 180.925781 L 80.460938 86.613281 C 80.460938 79.984375 75.089844 74.613281 68.460938 74.613281 L 52.277344 74.613281 C 45.652344 74.613281 40.277344 79.984375 40.277344 86.613281 Z M 40.277344 86.613281 "/></clipPath><clipPath id="e311bc505d"><path d="M 17.738281 121.710938 L 30.488281 121.710938 L 30.488281 192.960938 L 17.738281 192.960938 Z M 17.738281 121.710938 "/></clipPath><clipPath id="e9d4b81458"><path d="M 89.796875 39.722656 L 130.296875 39.722656 L 130.296875 192.722656 L 89.796875 192.722656 Z M 89.796875 39.722656 "/></clipPath><clipPath id="8e3034d71f"><path d="M 192.402344 16.390625 L 232.902344 16.390625 L 232.902344 192.640625 L 192.402344 192.640625 Z M 192.402344 16.390625 "/></clipPath><clipPath id="2e754c117f"><path d="M 141.722656 16.390625 L 182.222656 16.390625 L 182.222656 192.640625 L 141.722656 192.640625 Z M 141.722656 16.390625 "/></clipPath><clipPath id="715b45e0ad"><path d="M 244.109375 37.5 L 284.609375 37.5 L 284.609375 192.75 L 244.109375 192.75 Z M 244.109375 37.5 "/></clipPath><clipPath id="26b1635ca4"><path d="M 294.414062 79.304688 L 334.914062 79.304688 L 334.914062 192.554688 L 294.414062 192.554688 Z M 294.414062 79.304688 "/></clipPath><clipPath id="82a65c859a"><path d="M 294.414062 95.054688 L 294.414062 177.175781 C 294.414062 185.875 301.464844 192.925781 310.164062 192.925781 L 318.847656 192.925781 C 327.546875 192.925781 334.597656 185.875 334.597656 177.175781 L 334.597656 95.054688 C 334.597656 86.355469 327.546875 79.304688 318.847656 79.304688 L 310.164062 79.304688 C 301.464844 79.304688 294.414062 86.355469 294.414062 95.054688 Z M 294.414062 95.054688 "/></clipPath><clipPath id="54dd9a2baf"><path d="M 344.332031 135.117188 L 360.082031 135.117188 L 360.082031 192.867188 L 344.332031 192.867188 Z M 344.332031 135.117188 "/></clipPath><clipPath id="afb246035d"><path d="M 244.109375 31.878906 L 259.109375 31.878906 L 259.109375 193.128906 L 244.109375 193.128906 Z M 244.109375 31.878906 "/></clipPath><clipPath id="61536a33e9"><path d="M 111.09375 27.097656 L 131.34375 27.097656 L 131.34375 192.847656 L 111.09375 192.847656 Z M 111.09375 27.097656 "/></clipPath><clipPath id="0caef894f1"><path d="M 13.75 187.5 L 30.25 187.5 L 30.25 242.25 L 13.75 242.25 Z M 13.75 187.5 "/></clipPath><clipPath id="88a0009295"><path d="M 40.652344 187.5 L 80.402344 187.5 L 80.402344 293.25 L 40.652344 293.25 Z M 40.652344 187.5 "/></clipPath><clipPath id="763eaab5a3"><path d="M 90.808594 187.5 L 130.558594 187.5 L 130.558594 341.25 L 90.808594 341.25 Z M 90.808594 187.5 "/></clipPath><clipPath id="193c766ca7"><path d="M 142.292969 187.5 L 182.042969 187.5 L 182.042969 361.5 L 142.292969 361.5 Z M 142.292969 187.5 "/></clipPath><clipPath id="f03ee72a3d"><path d="M 193.460938 187.5 L 233.210938 187.5 L 233.210938 361.5 L 193.460938 361.5 Z M 193.460938 187.5 "/></clipPath><clipPath id="840a07cc4d"><path d="M 244.109375 187.5 L 283.859375 187.5 L 283.859375 341.25 L 244.109375 341.25 Z M 244.109375 187.5 "/></clipPath><clipPath id="d0093bba84"><path d="M 294.414062 187.5 L 334.164062 187.5 L 334.164062 293.25 L 294.414062 293.25 Z M 294.414062 187.5 "/></clipPath><clipPath id="534d74780b"><path d="M 344.53125 187.5 L 359.53125 187.5 L 359.53125 242.25 L 344.53125 242.25 Z M 344.53125 187.5 "/></clipPath><clipPath id="eaf084c6f3"><path d="M 58.089844 195.773438 L 80.589844 195.773438 L 80.589844 308.273438 L 58.089844 308.273438 Z M 58.089844 195.773438 "/></clipPath><clipPath id="374d306084"><path d="M 112.519531 192.925781 L 132.019531 192.925781 L 132.019531 345.925781 L 112.519531 345.925781 Z M 112.519531 192.925781 "/></clipPath><clipPath id="2e97b75211"><path d="M 243.910156 195.773438 L 259.660156 195.773438 L 259.660156 345.023438 L 243.910156 345.023438 Z M 243.910156 195.773438 "/></clipPath><clipPath id="cbce20c995"><path d="M 307.933594 187.5 L 320.683594 187.5 L 320.683594 307.5 L 307.933594 307.5 Z M 307.933594 187.5 "/></clipPath><clipPath id="18db12d7a8"><path d="M 4.992188 6 L 370 6 L 370 369 L 4.992188 369 Z M 4.992188 6 "/></clipPath></defs><g id="7062a1c5fa"><g clip-rule="nonzero" clip-path="url(#ccc4ba8730)"><path style=" stroke:none;fill-rule:nonzero;fill:#ffffff;fill-opacity:1;" d="M 365.265625 188.109375 C 365.265625 191.007812 365.191406 193.90625 365.050781 196.800781 C 364.910156 199.695312 364.695312 202.585938 364.410156 205.472656 C 364.128906 208.359375 363.773438 211.234375 363.347656 214.101562 C 362.921875 216.96875 362.425781 219.824219 361.859375 222.667969 C 361.292969 225.511719 360.660156 228.339844 359.957031 231.152344 C 359.25 233.964844 358.476562 236.757812 357.636719 239.535156 C 356.792969 242.308594 355.886719 245.058594 354.910156 247.789062 C 353.933594 250.519531 352.886719 253.222656 351.777344 255.902344 C 350.667969 258.582031 349.496094 261.230469 348.253906 263.851562 C 347.015625 266.472656 345.710938 269.0625 344.347656 271.617188 C 342.980469 274.175781 341.550781 276.699219 340.058594 279.183594 C 338.570312 281.671875 337.019531 284.121094 335.40625 286.53125 C 333.796875 288.941406 332.128906 291.3125 330.402344 293.640625 C 328.675781 295.96875 326.890625 298.253906 325.050781 300.496094 C 323.210938 302.734375 321.320312 304.929688 319.371094 307.078125 C 317.425781 309.226562 315.425781 311.328125 313.375 313.375 C 311.328125 315.425781 309.226562 317.425781 307.078125 319.371094 C 304.929688 321.320312 302.734375 323.210938 300.496094 325.050781 C 298.253906 326.890625 295.96875 328.675781 293.640625 330.402344 C 291.3125 332.128906 288.941406 333.796875 286.53125 335.40625 C 284.121094 337.019531 281.671875 338.570312 279.183594 340.058594 C 276.699219 341.550781 274.175781 342.980469 271.617188 344.347656 C 269.0625 345.710938 266.472656 347.015625 263.851562 348.253906 C 261.230469 349.496094 258.582031 350.667969 255.902344 351.777344 C 253.222656 352.886719 250.519531 353.933594 247.789062 354.910156 C 245.058594 355.886719 242.308594 356.792969 239.535156 357.636719 C 236.757812 358.476562 233.964844 359.25 231.152344 359.957031 C 228.339844 360.660156 225.511719 361.292969 222.667969 361.859375 C 219.824219 362.425781 216.96875 362.921875 214.101562 363.347656 C 211.234375 363.773438 208.359375 364.128906 205.472656 364.410156 C 202.585938 364.695312 199.695312 364.910156 196.800781 365.050781 C 193.90625 365.191406 191.007812 365.265625 188.109375 365.265625 C 185.207031 365.265625 182.3125 365.191406 179.414062 365.050781 C 176.519531 364.910156 173.628906 364.695312 170.742188 364.410156 C 167.859375 364.128906 164.980469 363.773438 162.113281 363.347656 C 159.246094 362.921875 156.390625 362.425781 153.546875 361.859375 C 150.703125 361.292969 147.875 360.660156 145.0625 359.957031 C 142.25 359.25 139.457031 358.476562 136.683594 357.636719 C 133.90625 356.792969 131.15625 355.886719 128.425781 354.910156 C 125.695312 353.933594 122.992188 352.886719 120.3125 351.777344 C 117.636719 350.667969 114.984375 349.496094 112.363281 348.253906 C 109.742188 347.015625 107.152344 345.710938 104.597656 344.347656 C 102.039062 342.980469 99.519531 341.550781 97.03125 340.058594 C 94.542969 338.570312 92.097656 337.019531 89.683594 335.40625 C 87.273438 333.796875 84.90625 332.128906 82.578125 330.402344 C 80.246094 328.675781 77.960938 326.890625 75.722656 325.050781 C 73.480469 323.210938 71.285156 321.320312 69.136719 319.371094 C 66.988281 317.425781 64.890625 315.425781 62.839844 313.375 C 60.789062 311.328125 58.792969 309.226562 56.84375 307.078125 C 54.898438 304.929688 53.003906 302.734375 51.164062 300.496094 C 49.324219 298.253906 47.542969 295.96875 45.816406 293.640625 C 44.085938 291.3125 42.417969 288.941406 40.808594 286.53125 C 39.199219 284.121094 37.648438 281.671875 36.15625 279.183594 C 34.664062 276.699219 33.238281 274.175781 31.871094 271.617188 C 30.503906 269.0625 29.199219 266.472656 27.960938 263.851562 C 26.722656 261.230469 25.546875 258.582031 24.4375 255.902344 C 23.328125 253.222656 22.285156 250.519531 21.308594 247.789062 C 20.332031 245.058594 19.421875 242.308594 18.582031 239.535156 C 17.738281 236.757812 16.964844 233.964844 16.261719 231.152344 C 15.558594 228.339844 14.921875 225.511719 14.355469 222.667969 C 13.789062 219.824219 13.292969 216.96875 12.871094 214.101562 C 12.445312 211.234375 12.089844 208.359375 11.804688 205.472656 C 11.519531 202.585938 11.308594 199.695312 11.164062 196.800781 C 11.023438 193.90625 10.953125 191.007812 10.953125 188.109375 C 10.953125 185.207031 11.023438 182.3125 11.164062 179.414062 C 11.308594 176.519531 11.519531 173.628906 11.804688 170.742188 C 12.089844 167.859375 12.445312 164.980469 12.871094 162.113281 C 13.292969 159.246094 13.789062 156.390625 14.355469 153.546875 C 14.921875 150.703125 15.558594 147.875 16.261719 145.0625 C 16.964844 142.25 17.738281 139.457031 18.582031 136.683594 C 19.421875 133.90625 20.332031 131.15625 21.308594 128.425781 C 22.285156 125.695312 23.328125 122.992188 24.4375 120.3125 C 25.546875 117.636719 26.722656 114.984375 27.960938 112.363281 C 29.199219 109.742188 30.503906 107.152344 31.871094 104.597656 C 33.238281 102.039062 34.664062 99.519531 36.15625 97.03125 C 37.648438 94.542969 39.199219 92.097656 40.808594 89.683594 C 42.417969 87.273438 44.085938 84.90625 45.816406 82.578125 C 47.542969 80.246094 49.324219 77.960938 51.164062 75.722656 C 53.003906 73.480469 54.898438 71.285156 56.84375 69.136719 C 58.792969 66.988281 60.789062 64.890625 62.839844 62.839844 C 64.890625 60.789062 66.988281 58.792969 69.136719 56.84375 C 71.285156 54.898438 73.480469 53.003906 75.722656 51.164062 C 77.960938 49.324219 80.246094 47.542969 82.578125 45.816406 C 84.90625 44.085938 87.273438 42.417969 89.683594 40.808594 C 92.097656 39.199219 94.542969 37.648438 97.03125 36.15625 C 99.519531 34.664062 102.039062 33.238281 104.597656 31.871094 C 107.152344 30.503906 109.742188 29.199219 112.363281 27.960938 C 114.984375 26.722656 117.636719 25.546875 120.3125 24.4375 C 122.992188 23.328125 125.695312 22.285156 128.425781 21.308594 C 131.15625 20.332031 133.90625 19.421875 136.683594 18.582031 C 139.457031 17.738281 142.25 16.964844 145.0625 16.261719 C 147.875 15.558594 150.703125 14.921875 153.546875 14.355469 C 156.390625 13.789062 159.246094 13.292969 162.113281 12.871094 C 164.980469 12.445312 167.859375 12.089844 170.742188 11.804688 C 173.628906 11.519531 176.519531 11.308594 179.414062 11.164062 C 182.3125 11.023438 185.207031 10.953125 188.109375 10.953125 C 191.007812 10.953125 193.90625 11.023438 196.800781 11.164062 C 199.695312 11.308594 202.585938 11.519531 205.472656 11.804688 C 208.359375 12.089844 211.234375 12.445312 214.101562 12.871094 C 216.96875 13.292969 219.824219 13.789062 222.667969 14.355469 C 225.511719 14.921875 228.339844 15.558594 231.152344 16.261719 C 233.964844 16.964844 236.757812 17.738281 239.535156 18.582031 C 242.308594 19.421875 245.058594 20.332031 247.789062 21.308594 C 250.519531 22.285156 253.222656 23.328125 255.902344 24.4375 C 258.582031 25.546875 261.230469 26.722656 263.851562 27.960938 C 266.472656 29.199219 269.0625 30.503906 271.617188 31.871094 C 274.175781 33.238281 276.699219 34.664062 279.183594 36.15625 C 281.671875 37.648438 284.121094 39.199219 286.53125 40.808594 C 288.941406 42.417969 291.3125 44.085938 293.640625 45.816406 C 295.96875 47.542969 298.253906 49.324219 300.496094 51.164062 C 302.734375 53.003906 304.929688 54.898438 307.078125 56.84375 C 309.226562 58.792969 311.328125 60.789062 313.375 62.839844 C 315.425781 64.890625 317.425781 66.988281 319.371094 69.136719 C 321.320312 71.285156 323.210938 73.480469 325.050781 75.722656 C 326.890625 77.960938 328.675781 80.246094 330.402344 82.578125 C 332.128906 84.90625 333.796875 87.273438 335.40625 89.683594 C 337.019531 92.097656 338.570312 94.542969 340.058594 97.03125 C 341.550781 99.519531 342.980469 102.039062 344.347656 104.597656 C 345.710938 107.152344 347.015625 109.742188 348.253906 112.363281 C 349.496094 114.984375 350.667969 117.636719 351.777344 120.3125 C 352.886719 122.992188 353.933594 125.695312 354.910156 128.425781 C 355.886719 131.15625 356.792969 133.90625 357.636719 136.683594 C 358.476562 139.457031 359.25 142.25 359.957031 145.0625 C 360.660156 147.875 361.292969 150.703125 361.859375 153.546875 C 362.425781 156.390625 362.921875 159.246094 363.347656 162.113281 C 363.773438 164.980469 364.128906 167.859375 364.410156 170.742188 C 364.695312 173.628906 364.910156 176.519531 365.050781 179.414062 C 365.191406 182.3125 365.265625 185.207031 365.265625 188.109375 Z M 365.265625 188.109375 "/></g><g clip-rule="nonzero" clip-path="url(#bf618c8ba8)"><path style="fill:none;stroke-width:1;stroke-linecap:butt;stroke-linejoin:miter;stroke:#000000;stroke-opacity:1;stroke-miterlimit:10;" d="M 177.410655 89.640612 C 177.410655 91.07661 177.373884 92.512608 177.304213 93.94667 C 177.234542 95.380733 177.1281 96.81286 176.986823 98.243052 C 176.84748 99.673244 176.671368 101.09763 176.460419 102.518145 C 176.249471 103.93866 176.003687 105.35337 175.723067 106.762273 C 175.442448 108.171177 175.128928 109.572339 174.780573 110.96576 C 174.430282 112.359181 174.047091 113.742926 173.631 115.118929 C 173.212974 116.492997 172.763983 117.855453 172.280156 119.208233 C 171.796329 120.561013 171.277667 121.900245 170.72804 123.227866 C 170.178412 124.555486 169.59782 125.867625 168.982393 127.166216 C 168.3689 128.464807 167.722508 129.747915 167.047086 131.013606 C 166.369728 132.281232 165.661406 133.53144 164.922118 134.762296 C 164.184767 135.995086 163.41645 137.208524 162.617168 138.402608 C 161.819821 139.596693 160.993445 140.771424 160.138039 141.924867 C 159.282634 143.07831 158.398198 144.210465 157.486669 145.321331 C 156.575139 146.430262 155.638451 147.517904 154.672732 148.582323 C 153.708949 149.646742 152.718072 150.687937 151.702036 151.702038 C 150.687935 152.718075 149.64674 153.708952 148.582321 154.672735 C 147.517902 155.638453 146.43026 156.575141 145.321329 157.486671 C 144.210463 158.398201 143.078308 159.282636 141.924865 160.138042 C 140.771422 160.993447 139.596691 161.819824 138.402606 162.61717 C 137.208522 163.416452 135.995084 164.184769 134.762294 164.922121 C 133.531438 165.661408 132.28123 166.36973 131.013604 167.047088 C 129.747913 167.72251 128.464804 168.368903 127.166213 168.982395 C 125.867622 169.597823 124.555484 170.178415 123.227864 170.728042 C 121.900243 171.277669 120.56101 171.796331 119.208231 172.280158 C 117.855451 172.763985 116.492995 173.212976 115.118927 173.631002 C 113.742924 174.047093 112.359179 174.430284 110.965758 174.780575 C 109.572337 175.12893 108.171175 175.44245 106.762271 175.723069 C 105.353368 176.003689 103.938658 176.249473 102.518143 176.460421 C 101.097628 176.67137 99.673242 176.847483 98.24305 176.986825 C 96.812858 177.128102 95.380731 177.234544 93.946668 177.304215 C 92.512605 177.373886 91.076608 177.410657 89.64061 177.410657 C 88.202677 177.410657 86.768614 177.373886 85.332616 177.304215 C 83.898554 177.234544 82.466427 177.128102 81.036235 176.986825 C 79.607978 176.847483 78.181657 176.67137 76.761141 176.460421 C 75.340626 176.249473 73.925917 176.003689 72.517013 175.723069 C 71.10811 175.44245 69.706947 175.12893 68.313526 174.780575 C 66.920105 174.430284 65.536361 174.047093 64.162293 173.631002 C 62.786289 173.212976 61.423833 172.763985 60.071054 172.280158 C 58.718274 171.796331 57.379041 171.277669 56.051421 170.728042 C 54.725735 170.178415 53.411662 169.597823 52.113071 168.982395 C 50.81448 168.368903 49.531371 167.72251 48.265681 167.047088 C 46.998054 166.36973 45.749781 165.661408 44.516991 164.922121 C 43.2842 164.184769 42.072698 163.416452 40.876678 162.61717 C 39.682594 161.819824 38.509798 160.993447 37.356355 160.138042 C 36.200976 159.282636 35.068822 158.398201 33.959891 157.486671 C 32.849025 156.575141 31.761382 155.638453 30.696963 154.672735 C 29.632544 153.708952 28.593284 152.718075 27.577248 151.702038 C 26.561212 150.687937 25.57227 149.646742 24.606552 148.582323 C 23.642769 147.517904 22.704145 146.430262 21.792616 145.321331 C 20.881086 144.210465 19.998586 143.07831 19.14318 141.924867 C 18.285839 140.771424 17.459463 139.596693 16.662117 138.402608 C 15.86477 137.208524 15.096453 135.995086 14.357166 134.762296 C 13.617879 133.53144 12.911492 132.281232 12.234134 131.013606 C 11.556777 129.747915 10.910384 128.464807 10.296892 127.166216 C 9.683399 125.867625 9.100872 124.555486 8.551245 123.227866 C 8.001618 121.900245 7.484891 120.561013 7.001064 119.208233 C 6.517237 117.855453 6.066311 116.492997 5.650219 115.118929 C 5.232193 113.742926 4.849002 112.359181 4.500647 110.96576 C 4.152292 109.572339 3.836837 108.171177 3.556217 106.762273 C 3.275598 105.35337 3.029814 103.93866 2.820801 102.518145 C 2.609852 101.09763 2.433739 99.673244 2.292462 98.243052 C 2.151184 96.81286 2.046678 95.380733 1.975071 93.94667 C 1.9054 92.512608 1.870565 91.07661 1.870565 89.640612 C 1.870565 88.202679 1.9054 86.768616 1.975071 85.332619 C 2.046678 83.898556 2.151184 82.466429 2.292462 81.036237 C 2.433739 79.60798 2.609852 78.181659 2.820801 76.761144 C 3.029814 75.340628 3.275598 73.925919 3.556217 72.517015 C 3.836837 71.108112 4.152292 69.70695 4.500647 68.313528 C 4.849002 66.920107 5.232193 65.536363 5.650219 64.162295 C 6.066311 62.786292 6.517237 61.423835 7.001064 60.071056 C 7.484891 58.718276 8.001618 57.379044 8.551245 56.051423 C 9.100872 54.725738 9.683399 53.411664 10.296892 52.113073 C 10.910384 50.814482 11.556777 49.531374 12.234134 48.265683 C 12.911492 46.998057 13.617879 45.749784 14.357166 44.516993 C 15.096453 43.284202 15.86477 42.0727 16.662117 40.876681 C 17.459463 39.682596 18.285839 38.5098 19.14318 37.356357 C 19.998586 36.200979 20.881086 35.068824 21.792616 33.959893 C 22.704145 32.849027 23.642769 31.761384 24.606552 30.696965 C 25.57227 29.632547 26.561212 28.593287 27.577248 27.577251 C 28.593284 26.561214 29.632544 25.572272 30.696963 24.606554 C 31.761382 23.642771 32.849025 22.704147 33.959891 21.792618 C 35.068822 20.881088 36.200976 19.998588 37.356355 19.143182 C 38.509798 18.285841 39.682594 17.459465 40.876678 16.662119 C 42.072698 15.864772 43.2842 15.096455 44.516991 14.357168 C 45.749781 13.617881 46.998054 12.911494 48.265681 12.234136 C 49.531371 11.556779 50.81448 10.910386 52.113071 10.296894 C 53.411662 9.683402 54.725735 9.100874 56.051421 8.551247 C 57.379041 8.00162 58.718274 7.484893 60.071054 7.001066 C 61.423833 6.517239 62.786289 6.066313 64.162293 5.650222 C 65.536361 5.232195 66.920105 4.849005 68.313526 4.500649 C 69.706947 4.152294 71.10811 3.836839 72.517013 3.556219 C 73.925917 3.2756 75.340626 3.029816 76.761141 2.820803 C 78.181657 2.609854 79.607978 2.433741 81.036235 2.292464 C 82.466427 2.151187 83.898554 2.04668 85.332616 1.975074 C 86.768614 1.905403 88.202677 1.870567 89.64061 1.870567 C 91.076608 1.870567 92.512605 1.905403 93.946668 1.975074 C 95.380731 2.04668 96.812858 2.151187 98.24305 2.292464 C 99.673242 2.433741 101.097628 2.609854 102.518143 2.820803 C 103.938658 3.029816 105.353368 3.2756 106.762271 3.556219 C 108.171175 3.836839 109.572337 4.152294 110.965758 4.500649 C 112.359179 4.849005 113.742924 5.232195 115.118927 5.650222 C 116.492995 6.066313 117.855451 6.517239 119.208231 7.001066 C 120.56101 7.484893 121.900243 8.00162 123.227864 8.551247 C 124.555484 9.100874 125.867622 9.683402 127.166213 10.296894 C 128.464804 10.910386 129.747913 11.556779 131.013604 12.234136 C 132.28123 12.911494 133.531438 13.617881 134.762294 14.357168 C 135.995084 15.096455 137.208522 15.864772 138.402606 16.662119 C 139.596691 17.459465 140.771422 18.285841 141.924865 19.143182 C 143.078308 19.998588 144.210463 20.881088 145.321329 21.792618 C 146.43026 22.704147 147.517902 23.642771 148.582321 24.606554 C 149.64674 25.572272 150.687935 26.561214 151.702036 27.577251 C 152.718072 28.593287 153.708949 29.632547 154.672732 30.696965 C 155.638451 31.761384 156.575139 32.849027 157.486669 33.959893 C 158.398198 35.068824 159.282634 36.200979 160.138039 37.356357 C 160.993445 38.5098 161.819821 39.682596 162.617168 40.876681 C 163.41645 42.0727 164.184767 43.284202 164.922118 44.516993 C 165.661406 45.749784 166.369728 46.998057 167.047086 48.265683 C 167.722508 49.531374 168.3689 50.814482 168.982393 52.113073 C 169.59782 53.411664 170.178412 54.725738 170.72804 56.051423 C 171.277667 57.379044 171.796329 58.718276 172.280156 60.071056 C 172.763983 61.423835 173.212974 62.786292 173.631 64.162295 C 174.047091 65.536363 174.430282 66.920107 174.780573 68.313528 C 175.128928 69.70695 175.442448 71.108112 175.723067 72.517015 C 176.003687 73.925919 176.249471 75.340628 176.460419 76.761144 C 176.671368 78.181659 176.84748 79.60798 176.986823 81.036237 C 177.1281 82.466429 177.234542 83.898556 177.304213 85.332619 C 177.373884 86.768616 177.410655 88.202679 177.410655 89.640612 Z M 177.410655 89.640612 " transform="matrix(2.018414,0,0,2.018414,7.177552,7.177547)"/></g><g clip-rule="nonzero" clip-path="url(#dd50abded8)"><g clip-rule="nonzero" clip-path="url(#c60f6a8c2a)"><path style=" stroke:none;fill-rule:nonzero;fill:#00bf63;fill-opacity:1;" d="M 40.277344 74.613281 L 80.777344 74.613281 L 80.777344 193.113281 L 40.277344 193.113281 Z M 40.277344 74.613281 "/></g></g><g clip-rule="nonzero" clip-path="url(#e311bc505d)"><path style=" stroke:none;fill-rule:nonzero;fill:#00bf63;fill-opacity:1;" d="M 17.738281 121.710938 L 30.488281 121.710938 L 30.488281 192.960938 L 17.738281 192.960938 Z M 17.738281 121.710938 "/></g><g clip-rule="nonzero" clip-path="url(#e9d4b81458)"><path style=" stroke:none;fill-rule:nonzero;fill:#00bf63;fill-opacity:1;" d="M 89.796875 39.722656 L 130.296875 39.722656 L 130.296875 192.722656 L 89.796875 192.722656 Z M 89.796875 39.722656 "/></g><g clip-rule="nonzero" clip-path="url(#8e3034d71f)"><path style=" stroke:none;fill-rule:nonzero;fill:#00bf63;fill-opacity:1;" d="M 192.402344 16.390625 L 232.902344 16.390625 L 232.902344 192.640625 L 192.402344 192.640625 Z M 192.402344 16.390625 "/></g><g clip-rule="nonzero" clip-path="url(#2e754c117f)"><path style=" stroke:none;fill-rule:nonzero;fill:#00bf63;fill-opacity:1;" d="M 141.722656 16.390625 L 182.222656 16.390625 L 182.222656 192.640625 L 141.722656 192.640625 Z M 141.722656 16.390625 "/></g><g clip-rule="nonzero" clip-path="url(#715b45e0ad)"><path style=" stroke:none;fill-rule:nonzero;fill:#00bf63;fill-opacity:1;" d="M 244.109375 37.5 L 284.609375 37.5 L 284.609375 192.75 L 244.109375 192.75 Z M 244.109375 37.5 "/></g><g clip-rule="nonzero" clip-path="url(#26b1635ca4)"><g clip-rule="nonzero" clip-path="url(#82a65c859a)"><path style=" stroke:none;fill-rule:nonzero;fill:#00bf63;fill-opacity:1;" d="M 294.414062 79.304688 L 334.914062 79.304688 L 334.914062 192.554688 L 294.414062 192.554688 Z M 294.414062 79.304688 "/></g></g><g clip-rule="nonzero" clip-path="url(#54dd9a2baf)"><path style=" stroke:none;fill-rule:nonzero;fill:#00bf63;fill-opacity:1;" d="M 344.332031 135.117188 L 360.082031 135.117188 L 360.082031 192.867188 L 344.332031 192.867188 Z M 344.332031 135.117188 "/></g><g clip-rule="nonzero" clip-path="url(#afb246035d)"><path style=" stroke:none;fill-rule:nonzero;fill:#00bf63;fill-opacity:1;" d="M 244.109375 31.878906 L 259.109375 31.878906 L 259.109375 193.128906 L 244.109375 193.128906 Z M 244.109375 31.878906 "/></g><g clip-rule="nonzero" clip-path="url(#61536a33e9)"><path style=" stroke:none;fill-rule:nonzero;fill:#00bf63;fill-opacity:1;" d="M 111.09375 27.097656 L 131.34375 27.097656 L 131.34375 192.847656 L 111.09375 192.847656 Z M 111.09375 27.097656 "/></g><g clip-rule="nonzero" clip-path="url(#0caef894f1)"><path style=" stroke:none;fill-rule:nonzero;fill:#0097b2;fill-opacity:1;" d="M 13.75 187.5 L 30.25 187.5 L 30.25 242.25 L 13.75 242.25 Z M 13.75 187.5 "/></g><g clip-rule="nonzero" clip-path="url(#88a0009295)"><path style=" stroke:none;fill-rule:nonzero;fill:#0097b2;fill-opacity:1;" d="M 40.652344 187.5 L 80.402344 187.5 L 80.402344 293.25 L 40.652344 293.25 Z M 40.652344 187.5 "/></g><g clip-rule="nonzero" clip-path="url(#763eaab5a3)"><path style=" stroke:none;fill-rule:nonzero;fill:#0097b2;fill-opacity:1;" d="M 90.808594 187.5 L 130.558594 187.5 L 130.558594 341.25 L 90.808594 341.25 Z M 90.808594 187.5 "/></g><g clip-rule="nonzero" clip-path="url(#193c766ca7)"><path style=" stroke:none;fill-rule:nonzero;fill:#0097b2;fill-opacity:1;" d="M 142.292969 187.5 L 182.042969 187.5 L 182.042969 361.5 L 142.292969 361.5 Z M 142.292969 187.5 "/></g><g clip-rule="nonzero" clip-path="url(#f03ee72a3d)"><path style=" stroke:none;fill-rule:nonzero;fill:#0097b2;fill-opacity:1;" d="M 193.460938 187.5 L 233.210938 187.5 L 233.210938 361.5 L 193.460938 361.5 Z M 193.460938 187.5 "/></g><g clip-rule="nonzero" clip-path="url(#840a07cc4d)"><path style=" stroke:none;fill-rule:nonzero;fill:#0097b2;fill-opacity:1;" d="M 244.109375 187.5 L 283.859375 187.5 L 283.859375 341.25 L 244.109375 341.25 Z M 244.109375 187.5 "/></g><g clip-rule="nonzero" clip-path="url(#d0093bba84)"><path style=" stroke:none;fill-rule:nonzero;fill:#0097b2;fill-opacity:1;" d="M 294.414062 187.5 L 334.164062 187.5 L 334.164062 293.25 L 294.414062 293.25 Z M 294.414062 187.5 "/></g><g clip-rule="nonzero" clip-path="url(#534d74780b)"><path style=" stroke:none;fill-rule:nonzero;fill:#0097b2;fill-opacity:1;" d="M 344.53125 187.5 L 359.53125 187.5 L 359.53125 242.25 L 344.53125 242.25 Z M 344.53125 187.5 "/></g><g clip-rule="nonzero" clip-path="url(#eaf084c6f3)"><path style=" stroke:none;fill-rule:nonzero;fill:#0097b2;fill-opacity:1;" d="M 58.089844 195.773438 L 80.589844 195.773438 L 80.589844 308.273438 L 58.089844 308.273438 Z M 58.089844 195.773438 "/></g><g clip-rule="nonzero" clip-path="url(#374d306084)"><path style=" stroke:none;fill-rule:nonzero;fill:#0097b2;fill-opacity:1;" d="M 112.519531 192.925781 L 132.019531 192.925781 L 132.019531 345.925781 L 112.519531 345.925781 Z M 112.519531 192.925781 "/></g><g clip-rule="nonzero" clip-path="url(#2e97b75211)"><path style=" stroke:none;fill-rule:nonzero;fill:#0097b2;fill-opacity:1;" d="M 243.910156 195.773438 L 259.660156 195.773438 L 259.660156 345.023438 L 243.910156 345.023438 Z M 243.910156 195.773438 "/></g><g clip-rule="nonzero" clip-path="url(#cbce20c995)"><path style=" stroke:none;fill-rule:nonzero;fill:#0097b2;fill-opacity:1;" d="M 307.933594 187.5 L 320.683594 187.5 L 320.683594 307.5 L 307.933594 307.5 Z M 307.933594 187.5 "/></g><g clip-rule="nonzero" clip-path="url(#18db12d7a8)"><path style=" stroke:none;fill-rule:nonzero;fill:#ffffff;fill-opacity:1;" d="M 318.464844 61.566406 C 316.382812 59.429688 314.25 57.34375 312.066406 55.308594 C 309.882812 53.277344 307.648438 51.296875 305.367188 49.371094 C 303.085938 47.449219 300.757812 45.578125 298.386719 43.769531 C 296.011719 41.957031 293.597656 40.207031 291.140625 38.515625 C 288.679688 36.824219 286.183594 35.191406 283.644531 33.621094 C 281.105469 32.050781 278.53125 30.542969 275.917969 29.101562 C 273.304688 27.65625 270.660156 26.277344 267.980469 24.960938 C 265.300781 23.648438 262.589844 22.398438 259.851562 21.21875 C 257.109375 20.035156 254.339844 18.921875 251.546875 17.875 C 248.75 16.828125 245.933594 15.851562 243.089844 14.941406 C 240.246094 14.035156 237.382812 13.195312 234.5 12.425781 C 231.613281 11.660156 228.714844 10.960938 225.796875 10.335938 C 222.875 9.710938 219.945312 9.15625 217 8.671875 C 214.054688 8.1875 211.097656 7.777344 208.132812 7.441406 C 205.167969 7.101562 202.195312 6.835938 199.21875 6.644531 C 196.238281 6.449219 193.257812 6.332031 190.273438 6.285156 C 187.289062 6.238281 184.304688 6.261719 181.324219 6.363281 C 178.339844 6.460938 175.359375 6.632812 172.386719 6.878906 C 169.410156 7.125 166.445312 7.441406 163.484375 7.832031 C 160.527344 8.222656 157.578125 8.683594 154.644531 9.21875 C 151.707031 9.753906 148.785156 10.359375 145.878906 11.035156 C 142.972656 11.714844 140.082031 12.460938 137.210938 13.28125 C 134.34375 14.097656 131.492188 14.988281 128.667969 15.945312 C 125.839844 16.902344 123.039062 17.929688 120.261719 19.027344 C 117.488281 20.121094 114.738281 21.285156 112.019531 22.511719 C 109.300781 23.742188 106.613281 25.039062 103.957031 26.398438 C 101.300781 27.761719 98.679688 29.1875 96.09375 30.675781 C 93.503906 32.167969 90.957031 33.71875 88.445312 35.332031 C 85.9375 36.945312 83.46875 38.621094 81.039062 40.355469 C 78.609375 42.09375 76.226562 43.886719 73.886719 45.738281 C 71.542969 47.589844 69.25 49.496094 67.003906 51.460938 C 64.753906 53.425781 62.558594 55.445312 60.410156 57.515625 C 24.695312 91.964844 4.992188 138.101562 4.992188 187.378906 C 4.992188 236.65625 24.671875 282.777344 60.410156 317.25 C 62.558594 319.320312 64.753906 321.339844 67.003906 323.304688 C 69.25 325.269531 71.542969 327.175781 73.886719 329.027344 C 76.226562 330.878906 78.609375 332.675781 81.039062 334.410156 C 83.46875 336.144531 85.9375 337.820312 88.449219 339.433594 C 90.957031 341.050781 93.507812 342.601562 96.09375 344.089844 C 98.679688 345.582031 101.300781 347.007812 103.957031 348.367188 C 106.613281 349.730469 109.300781 351.023438 112.019531 352.253906 C 114.738281 353.484375 117.488281 354.648438 120.265625 355.742188 C 123.042969 356.839844 125.84375 357.863281 128.667969 358.824219 C 131.496094 359.78125 134.34375 360.667969 137.214844 361.488281 C 140.085938 362.308594 142.972656 363.054688 145.882812 363.734375 C 148.789062 364.410156 151.710938 365.015625 154.644531 365.550781 C 157.582031 366.085938 160.53125 366.546875 163.488281 366.9375 C 166.449219 367.328125 169.417969 367.644531 172.390625 367.890625 C 175.367188 368.136719 178.34375 368.308594 181.328125 368.40625 C 184.3125 368.503906 187.292969 368.53125 190.277344 368.484375 C 193.261719 368.4375 196.246094 368.316406 199.222656 368.125 C 202.203125 367.933594 205.175781 367.667969 208.140625 367.328125 C 211.105469 366.988281 214.0625 366.578125 217.007812 366.097656 C 219.953125 365.613281 222.882812 365.058594 225.800781 364.429688 C 228.71875 363.804688 231.621094 363.109375 234.503906 362.339844 C 237.390625 361.570312 240.253906 360.730469 243.097656 359.824219 C 245.941406 358.914062 248.757812 357.9375 251.554688 356.890625 C 254.347656 355.84375 257.117188 354.730469 259.859375 353.546875 C 262.597656 352.363281 265.308594 351.117188 267.988281 349.800781 C 270.667969 348.488281 273.3125 347.105469 275.925781 345.664062 C 278.539062 344.21875 281.113281 342.710938 283.652344 341.140625 C 286.191406 339.570312 288.6875 337.9375 291.148438 336.246094 C 293.605469 334.554688 296.019531 332.800781 298.394531 330.992188 C 300.765625 329.179688 303.09375 327.3125 305.375 325.386719 C 307.65625 323.464844 309.890625 321.484375 312.074219 319.449219 C 314.257812 317.414062 316.390625 315.328125 318.472656 313.191406 C 322.542969 309.042969 326.398438 304.703125 330.046875 300.179688 C 333.691406 295.65625 337.113281 290.964844 340.304688 286.109375 C 343.496094 281.253906 346.445312 276.253906 349.152344 271.113281 C 351.855469 265.972656 354.308594 260.710938 356.503906 255.328125 C 358.699219 249.949219 360.628906 244.476562 362.292969 238.90625 C 363.957031 233.339844 365.347656 227.703125 366.464844 222 C 367.578125 216.296875 368.417969 210.554688 368.976562 204.769531 C 369.535156 198.988281 369.8125 193.191406 369.808594 187.378906 C 369.808594 140.257812 351.574219 95.582031 318.472656 61.566406 Z M 66.09375 74.851562 C 69.425781 78.359375 72.59375 82.007812 75.601562 85.796875 C 78.605469 89.585938 81.4375 93.5 84.09375 97.542969 C 86.75 101.585938 89.222656 105.734375 91.507812 110 C 93.796875 114.261719 95.886719 118.617188 97.785156 123.066406 C 99.683594 127.511719 101.378906 132.039062 102.875 136.636719 C 104.371094 141.238281 105.65625 145.894531 106.734375 150.609375 C 107.816406 155.324219 108.683594 160.078125 109.335938 164.871094 C 109.992188 169.664062 110.433594 174.472656 110.660156 179.304688 L 21.484375 179.304688 C 21.710938 174.472656 22.152344 169.664062 22.808594 164.871094 C 23.464844 160.078125 24.335938 155.324219 25.414062 150.609375 C 26.496094 145.894531 27.78125 141.238281 29.277344 136.636719 C 30.773438 132.039062 32.472656 127.515625 34.371094 123.066406 C 36.269531 118.617188 38.359375 114.261719 40.648438 110 C 42.933594 105.738281 45.40625 101.585938 48.0625 97.542969 C 50.71875 93.503906 53.550781 89.585938 56.558594 85.796875 C 59.5625 82.007812 62.730469 78.359375 66.0625 74.851562 Z M 21.484375 195.46875 L 110.660156 195.46875 C 110.433594 200.300781 109.992188 205.113281 109.335938 209.90625 C 108.675781 214.699219 107.808594 219.453125 106.730469 224.167969 C 105.648438 228.882812 104.359375 233.539062 102.863281 238.140625 C 101.367188 242.742188 99.671875 247.265625 97.773438 251.714844 C 95.871094 256.164062 93.777344 260.519531 91.492188 264.78125 C 89.203125 269.042969 86.730469 273.195312 84.070312 277.238281 C 81.414062 281.28125 78.582031 285.195312 75.574219 288.984375 C 72.566406 292.773438 69.394531 296.421875 66.0625 299.929688 C 62.730469 296.421875 59.5625 292.773438 56.558594 288.980469 C 53.550781 285.191406 50.71875 281.277344 48.0625 277.234375 C 45.40625 273.191406 42.933594 269.039062 40.648438 264.777344 C 38.359375 260.515625 36.269531 256.160156 34.371094 251.710938 C 32.472656 247.261719 30.773438 242.738281 29.277344 238.136719 C 27.78125 233.535156 26.496094 228.878906 25.414062 224.164062 C 24.335938 219.449219 23.464844 214.695312 22.808594 209.902344 C 22.152344 205.109375 21.710938 200.296875 21.484375 195.46875 Z M 179.273438 352.132812 C 174.625 351.914062 169.996094 351.503906 165.382812 350.894531 C 160.769531 350.289062 156.191406 349.488281 151.648438 348.496094 C 147.105469 347.5 142.609375 346.320312 138.164062 344.945312 C 133.71875 343.574219 129.339844 342.019531 125.027344 340.277344 C 120.710938 338.535156 116.480469 336.617188 112.328125 334.519531 C 108.175781 332.421875 104.117188 330.15625 100.15625 327.714844 C 96.195312 325.277344 92.34375 322.675781 88.601562 319.910156 C 84.859375 317.144531 81.242188 314.230469 77.746094 311.160156 C 77.835938 311.070312 77.917969 310.972656 78 310.875 C 78.75 310.128906 79.421875 309.3125 80.128906 308.53125 C 81.429688 307.101562 82.726562 305.679688 83.976562 304.21875 C 84.726562 303.304688 85.472656 302.363281 86.222656 301.441406 C 87.347656 300.070312 88.46875 298.714844 89.546875 297.328125 C 90.296875 296.324219 91.046875 295.316406 91.796875 294.332031 C 92.804688 292.976562 93.816406 291.621094 94.789062 290.238281 C 95.539062 289.179688 96.242188 288.101562 96.960938 287.023438 C 97.867188 285.660156 98.78125 284.300781 99.652344 282.90625 C 100.355469 281.796875 101.011719 280.660156 101.695312 279.558594 C 102.519531 278.171875 103.351562 276.773438 104.152344 275.355469 C 104.789062 274.21875 105.402344 273.066406 106.023438 271.914062 C 106.773438 270.488281 107.519531 269.066406 108.269531 267.621094 C 108.863281 266.460938 109.421875 265.269531 109.984375 264.09375 C 110.667969 262.632812 111.339844 261.171875 111.992188 259.699219 C 112.515625 258.511719 113.015625 257.3125 113.488281 256.109375 C 114.109375 254.613281 114.707031 253.117188 115.28125 251.617188 C 115.742188 250.414062 116.199219 249.207031 116.636719 247.984375 C 117.179688 246.449219 117.703125 244.902344 118.207031 243.351562 C 118.605469 242.136719 119 240.917969 119.375 239.695312 C 119.84375 238.109375 120.296875 236.515625 120.730469 234.917969 C 121.070312 233.703125 121.398438 232.492188 121.707031 231.261719 C 122.117188 229.625 122.453125 227.976562 122.851562 226.3125 C 123.105469 225.113281 123.382812 223.917969 123.601562 222.703125 C 123.9375 220.996094 124.222656 219.257812 124.511719 217.527344 C 124.714844 216.367188 124.925781 215.207031 125.105469 214.039062 C 125.375 212.1875 125.585938 210.292969 125.800781 208.460938 C 125.921875 207.394531 126.070312 206.332031 126.175781 205.269531 C 126.386719 203.148438 126.527344 201.007812 126.664062 198.867188 C 126.714844 198.042969 126.796875 197.234375 126.835938 196.402344 C 126.835938 196.101562 126.835938 195.796875 126.871094 195.496094 L 179.203125 195.496094 Z M 179.273438 179.285156 L 126.941406 179.285156 C 126.941406 178.984375 126.941406 178.683594 126.902344 178.378906 C 126.863281 177.554688 126.78125 176.738281 126.730469 175.90625 C 126.59375 173.773438 126.453125 171.636719 126.242188 169.511719 C 126.136719 168.441406 125.988281 167.390625 125.867188 166.320312 C 125.652344 164.457031 125.441406 162.574219 125.171875 160.742188 C 125 159.574219 124.78125 158.417969 124.582031 157.257812 C 124.289062 155.527344 124.003906 153.792969 123.667969 152.070312 C 123.421875 150.871094 123.144531 149.671875 122.917969 148.46875 C 122.550781 146.8125 122.167969 145.15625 121.773438 143.507812 C 121.464844 142.289062 121.136719 141.082031 120.800781 139.871094 C 120.363281 138.273438 119.914062 136.671875 119.445312 135.085938 C 119.070312 133.863281 118.695312 132.652344 118.273438 131.4375 C 117.773438 129.886719 117.25 128.328125 116.703125 126.792969 C 116.269531 125.574219 115.8125 124.375 115.355469 123.171875 C 114.78125 121.671875 114.179688 120.175781 113.558594 118.675781 C 113.058594 117.472656 112.558594 116.28125 112.058594 115.097656 C 111.40625 113.597656 110.734375 112.140625 110.050781 110.6875 C 109.492188 109.503906 108.929688 108.328125 108.351562 107.175781 C 107.605469 105.722656 106.855469 104.289062 106.105469 102.859375 C 105.492188 101.714844 104.878906 100.570312 104.242188 99.429688 C 103.441406 98.007812 102.609375 96.605469 101.769531 95.207031 C 101.105469 94.105469 100.445312 92.960938 99.75 91.890625 C 98.871094 90.496094 97.949219 89.117188 97.039062 87.742188 C 96.324219 86.675781 95.621094 85.605469 94.886719 84.558594 C 93.914062 83.164062 92.902344 81.800781 91.890625 80.429688 C 91.144531 79.433594 90.394531 78.425781 89.644531 77.4375 C 88.566406 76.035156 87.398438 74.664062 86.296875 73.289062 C 85.550781 72.375 84.800781 71.445312 84.050781 70.546875 C 82.800781 69.046875 81.496094 67.648438 80.1875 66.210938 C 79.476562 65.460938 78.800781 64.644531 78.074219 63.882812 L 77.820312 63.589844 C 81.316406 60.523438 84.929688 57.609375 88.671875 54.847656 C 92.410156 52.085938 96.257812 49.484375 100.214844 47.046875 C 104.175781 44.609375 108.226562 42.339844 112.378906 40.246094 C 116.527344 38.148438 120.757812 36.230469 125.066406 34.488281 C 129.378906 32.75 133.753906 31.191406 138.195312 29.820312 C 142.636719 28.449219 147.128906 27.265625 151.667969 26.273438 C 156.210938 25.277344 160.785156 24.476562 165.394531 23.867188 C 170.003906 23.257812 174.628906 22.84375 179.273438 22.625 Z M 195.542969 22.625 C 200.429688 22.847656 205.296875 23.285156 210.144531 23.9375 C 214.992188 24.59375 219.804688 25.460938 224.574219 26.542969 C 229.34375 27.625 234.058594 28.917969 238.710938 30.417969 C 243.367188 31.917969 247.949219 33.625 252.453125 35.53125 C 256.957031 37.441406 261.367188 39.542969 265.683594 41.84375 C 270 44.144531 274.207031 46.632812 278.300781 49.308594 C 282.398438 51.984375 286.367188 54.835938 290.207031 57.863281 C 294.050781 60.890625 297.75 64.082031 301.308594 67.4375 C 301.203125 67.550781 301.113281 67.671875 301.007812 67.78125 C 300.296875 68.589844 299.617188 69.421875 298.914062 70.246094 C 297.757812 71.59375 296.589844 72.941406 295.476562 74.320312 C 294.726562 75.242188 294.023438 76.183594 293.296875 77.121094 C 292.285156 78.4375 291.25 79.742188 290.300781 81.082031 C 289.550781 82.070312 288.886719 83.082031 288.171875 84.078125 C 287.253906 85.390625 286.324219 86.707031 285.441406 88.039062 C 284.75 89.082031 284.085938 90.136719 283.417969 91.191406 C 282.578125 92.527344 281.734375 93.851562 280.925781 95.199219 C 280.273438 96.285156 279.660156 97.371094 279.03125 98.472656 C 278.28125 99.820312 277.496094 101.175781 276.785156 102.539062 C 276.175781 103.660156 275.601562 104.785156 275.023438 105.929688 C 274.320312 107.292969 273.636719 108.667969 272.972656 110.050781 C 272.421875 111.203125 271.886719 112.359375 271.367188 113.523438 C 270.738281 114.925781 270.125 116.316406 269.527344 117.734375 C 269.027344 118.910156 268.546875 120.089844 268.082031 121.269531 C 267.511719 122.699219 266.972656 124.136719 266.441406 125.574219 C 266.015625 126.757812 265.578125 127.957031 265.167969 129.152344 C 264.667969 130.617188 264.191406 132.082031 263.738281 133.550781 C 263.363281 134.753906 262.988281 135.960938 262.628906 137.175781 C 262.195312 138.671875 261.796875 140.167969 261.402344 141.667969 C 261.085938 142.871094 260.757812 144.085938 260.464844 145.300781 C 260.097656 146.796875 259.769531 148.386719 259.4375 149.933594 C 259.183594 151.132812 258.914062 152.332031 258.691406 153.542969 C 258.375 155.132812 258.128906 156.75 257.867188 158.351562 C 257.671875 159.527344 257.460938 160.695312 257.296875 161.871094 C 257.050781 163.566406 256.871094 165.273438 256.675781 166.980469 C 256.546875 168.085938 256.398438 169.1875 256.285156 170.304688 C 256.113281 172.191406 255.996094 174.09375 255.875 175.988281 C 255.820312 176.925781 255.730469 177.859375 255.6875 178.804688 C 255.6875 178.96875 255.6875 179.132812 255.6875 179.292969 L 195.542969 179.292969 Z M 195.542969 352.167969 L 195.542969 195.46875 L 255.621094 195.46875 C 255.621094 195.632812 255.621094 195.789062 255.621094 195.945312 C 255.664062 196.898438 255.753906 197.824219 255.808594 198.761719 C 255.925781 200.671875 256.046875 202.566406 256.21875 204.453125 C 256.332031 205.570312 256.480469 206.699219 256.609375 207.777344 C 256.804688 209.476562 256.984375 211.1875 257.230469 212.878906 C 257.394531 214.0625 257.605469 215.222656 257.792969 216.398438 C 258.054688 218.007812 258.308594 219.617188 258.621094 221.214844 C 258.847656 222.425781 259.117188 223.625 259.371094 224.824219 C 259.703125 226.375 260.03125 227.921875 260.398438 229.457031 C 260.691406 230.679688 261.019531 231.878906 261.328125 233.082031 C 261.730469 234.582031 262.128906 236.078125 262.5625 237.578125 C 262.914062 238.78125 263.3125 239.980469 263.664062 241.179688 C 264.128906 242.675781 264.605469 244.128906 265.101562 245.605469 C 265.511719 246.796875 265.945312 247.976562 266.375 249.160156 C 266.90625 250.605469 267.445312 252.058594 268.019531 253.488281 C 268.484375 254.664062 268.960938 255.832031 269.453125 256.996094 C 270.054688 258.417969 270.671875 259.832031 271.300781 261.242188 C 271.824219 262.386719 272.355469 263.539062 272.902344 264.679688 C 273.566406 266.070312 274.253906 267.457031 274.964844 268.835938 C 275.53125 269.957031 276.109375 271.082031 276.707031 272.195312 C 277.457031 273.574219 278.207031 274.929688 278.953125 276.285156 C 279.578125 277.378906 280.191406 278.457031 280.835938 279.527344 C 281.652344 280.898438 282.503906 282.238281 283.351562 283.578125 C 284.011719 284.621094 284.667969 285.660156 285.351562 286.695312 C 286.242188 288.042969 287.171875 289.363281 288.105469 290.6875 C 288.800781 291.683594 289.492188 292.679688 290.21875 293.683594 C 291.199219 295.015625 292.234375 296.332031 293.214844 297.652344 C 293.960938 298.578125 294.652344 299.53125 295.394531 300.445312 C 296.507812 301.816406 297.640625 303.164062 298.816406 304.503906 C 299.519531 305.328125 300.207031 306.171875 300.941406 306.988281 C 301.03125 307.101562 301.121094 307.214844 301.226562 307.328125 C 297.671875 310.679688 293.972656 313.871094 290.132812 316.898438 C 286.296875 319.921875 282.328125 322.773438 278.238281 325.445312 C 274.144531 328.117188 269.941406 330.605469 265.628906 332.90625 C 261.316406 335.203125 256.90625 337.308594 252.40625 339.214844 C 247.90625 341.125 243.332031 342.828125 238.679688 344.328125 C 234.027344 345.832031 229.316406 347.125 224.550781 348.207031 C 219.785156 349.289062 214.980469 350.15625 210.136719 350.8125 C 205.292969 351.46875 200.429688 351.910156 195.542969 352.132812 Z M 312.625 295.652344 C 309.582031 292.207031 306.691406 288.640625 303.949219 284.953125 C 301.207031 281.265625 298.628906 277.46875 296.207031 273.5625 C 293.785156 269.65625 291.535156 265.65625 289.453125 261.558594 C 287.371094 257.460938 285.464844 253.285156 283.734375 249.027344 C 282.003906 244.769531 280.457031 240.449219 279.089844 236.058594 C 277.726562 231.671875 276.550781 227.234375 275.558594 222.746094 C 274.570312 218.261719 273.769531 213.738281 273.160156 209.183594 C 272.554688 204.628906 272.136719 200.058594 271.914062 195.46875 L 353.296875 195.46875 C 353.074219 200.054688 352.660156 204.628906 352.054688 209.179688 C 351.445312 213.734375 350.648438 218.257812 349.660156 222.742188 C 348.671875 227.230469 347.496094 231.667969 346.132812 236.054688 C 344.769531 240.441406 343.222656 244.761719 341.496094 249.019531 C 339.765625 253.277344 337.859375 257.453125 335.78125 261.550781 C 333.699219 265.644531 331.449219 269.648438 329.03125 273.554688 C 326.613281 277.460938 324.035156 281.257812 321.292969 284.945312 C 318.554688 288.632812 315.664062 292.199219 312.625 295.644531 Z M 271.914062 179.304688 C 272.136719 174.714844 272.554688 170.144531 273.164062 165.589844 C 273.769531 161.035156 274.570312 156.515625 275.5625 152.03125 C 276.550781 147.542969 277.730469 143.105469 279.09375 138.71875 C 280.457031 134.332031 282.007812 130.007812 283.734375 125.753906 C 285.464844 121.496094 287.371094 117.320312 289.453125 113.222656 C 291.539062 109.128906 293.789062 105.128906 296.207031 101.222656 C 298.628906 97.316406 301.210938 93.519531 303.949219 89.832031 C 306.691406 86.144531 309.582031 82.578125 312.625 79.136719 C 315.664062 82.582031 318.554688 86.144531 321.292969 89.835938 C 324.03125 93.523438 326.613281 97.320312 329.03125 101.226562 C 331.449219 105.132812 333.699219 109.132812 335.777344 113.226562 C 337.859375 117.324219 339.765625 121.5 341.492188 125.757812 C 343.222656 130.011719 344.765625 134.335938 346.128906 138.722656 C 347.492188 143.109375 348.671875 147.546875 349.660156 152.03125 C 350.648438 156.519531 351.445312 161.039062 352.054688 165.59375 C 352.660156 170.144531 353.074219 174.71875 353.296875 179.304688 Z M 271.914062 179.304688 "/><path style=" stroke:none;fill-rule:nonzero;fill:#ffffff;fill-opacity:1;" d="M 318.464844 61.566406 C 316.382812 59.429688 314.25 57.34375 312.066406 55.308594 C 309.882812 53.277344 307.648438 51.296875 305.367188 49.371094 C 303.085938 47.449219 300.757812 45.578125 298.386719 43.769531 C 296.011719 41.957031 293.597656 40.207031 291.140625 38.515625 C 288.679688 36.824219 286.183594 35.191406 283.644531 33.621094 C 281.105469 32.050781 278.53125 30.542969 275.917969 29.101562 C 273.304688 27.65625 270.660156 26.277344 267.980469 24.960938 C 265.300781 23.648438 262.589844 22.398438 259.851562 21.21875 C 257.109375 20.035156 254.339844 18.921875 251.546875 17.875 C 248.75 16.828125 245.933594 15.851562 243.089844 14.941406 C 240.246094 14.035156 237.382812 13.195312 234.5 12.425781 C 231.613281 11.660156 228.714844 10.960938 225.796875 10.335938 C 222.875 9.710938 219.945312 9.15625 217 8.671875 C 214.054688 8.1875 211.097656 7.777344 208.132812 7.441406 C 205.167969 7.101562 202.195312 6.835938 199.21875 6.644531 C 196.238281 6.449219 193.257812 6.332031 190.273438 6.285156 C 187.289062 6.238281 184.304688 6.261719 181.324219 6.363281 C 178.339844 6.460938 175.359375 6.632812 172.386719 6.878906 C 169.410156 7.125 166.445312 7.441406 163.484375 7.832031 C 160.527344 8.222656 157.578125 8.683594 154.644531 9.21875 C 151.707031 9.753906 148.785156 10.359375 145.878906 11.035156 C 142.972656 11.714844 140.082031 12.460938 137.210938 13.28125 C 134.34375 14.097656 131.492188 14.988281 128.667969 15.945312 C 125.839844 16.902344 123.039062 17.929688 120.261719 19.027344 C 117.488281 20.121094 114.738281 21.285156 112.019531 22.511719 C 109.300781 23.742188 106.613281 25.039062 103.957031 26.398438 C 101.300781 27.761719 98.679688 29.1875 96.09375 30.675781 C 93.503906 32.167969 90.957031 33.71875 88.445312 35.332031 C 85.9375 36.945312 83.46875 38.621094 81.039062 40.355469 C 78.609375 42.09375 76.226562 43.886719 73.886719 45.738281 C 71.542969 47.589844 69.25 49.496094 67.003906 51.460938 C 64.753906 53.425781 62.558594 55.445312 60.410156 57.515625 C 24.695312 91.964844 4.992188 138.101562 4.992188 187.378906 C 4.992188 236.65625 24.671875 282.777344 60.410156 317.25 C 62.558594 319.320312 64.753906 321.339844 67.003906 323.304688 C 69.25 325.269531 71.542969 327.175781 73.886719 329.027344 C 76.226562 330.878906 78.609375 332.675781 81.039062 334.410156 C 83.46875 336.144531 85.9375 337.820312 88.449219 339.433594 C 90.957031 341.050781 93.507812 342.601562 96.09375 344.089844 C 98.679688 345.582031 101.300781 347.007812 103.957031 348.367188 C 106.613281 349.730469 109.300781 351.023438 112.019531 352.253906 C 114.738281 353.484375 117.488281 354.648438 120.265625 355.742188 C 123.042969 356.839844 125.84375 357.863281 128.667969 358.824219 C 131.496094 359.78125 134.34375 360.667969 137.214844 361.488281 C 140.085938 362.308594 142.972656 363.054688 145.882812 363.734375 C 148.789062 364.410156 151.710938 365.015625 154.644531 365.550781 C 157.582031 366.085938 160.53125 366.546875 163.488281 366.9375 C 166.449219 367.328125 169.417969 367.644531 172.390625 367.890625 C 175.367188 368.136719 178.34375 368.308594 181.328125 368.40625 C 184.3125 368.503906 187.292969 368.53125 190.277344 368.484375 C 193.261719 368.4375 196.246094 368.316406 199.222656 368.125 C 202.203125 367.933594 205.175781 367.667969 208.140625 367.328125 C 211.105469 366.988281 214.0625 366.578125 217.007812 366.097656 C 219.953125 365.613281 222.882812 365.058594 225.800781 364.429688 C 228.71875 363.804688 231.621094 363.109375 234.503906 362.339844 C 237.390625 361.570312 240.253906 360.730469 243.097656 359.824219 C 245.941406 358.914062 248.757812 357.9375 251.554688 356.890625 C 254.347656 355.84375 257.117188 354.730469 259.859375 353.546875 C 262.597656 352.363281 265.308594 351.117188 267.988281 349.800781 C 270.667969 348.488281 273.3125 347.105469 275.925781 345.664062 C 278.539062 344.21875 281.113281 342.710938 283.652344 341.140625 C 286.191406 339.570312 288.6875 337.9375 291.148438 336.246094 C 293.605469 334.554688 296.019531 332.800781 298.394531 330.992188 C 300.765625 329.179688 303.09375 327.3125 305.375 325.386719 C 307.65625 323.464844 309.890625 321.484375 312.074219 319.449219 C 314.257812 317.414062 316.390625 315.328125 318.472656 313.191406 C 322.542969 309.042969 326.398438 304.703125 330.046875 300.179688 C 333.691406 295.65625 337.113281 290.964844 340.304688 286.109375 C 343.496094 281.253906 346.445312 276.253906 349.152344 271.113281 C 351.855469 265.972656 354.308594 260.710938 356.503906 255.328125 C 358.699219 249.949219 360.628906 244.476562 362.292969 238.90625 C 363.957031 233.339844 365.347656 227.703125 366.464844 222 C 367.578125 216.296875 368.417969 210.554688 368.976562 204.769531 C 369.535156 198.988281 369.8125 193.191406 369.808594 187.378906 C 369.808594 140.257812 351.574219 95.582031 318.472656 61.566406 Z M 66.09375 74.851562 C 69.425781 78.359375 72.59375 82.007812 75.601562 85.796875 C 78.605469 89.585938 81.4375 93.5 84.09375 97.542969 C 86.75 101.585938 89.222656 105.734375 91.507812 110 C 93.796875 114.261719 95.886719 118.617188 97.785156 123.066406 C 99.683594 127.511719 101.378906 132.039062 102.875 136.636719 C 104.371094 141.238281 105.65625 145.894531 106.734375 150.609375 C 107.816406 155.324219 108.683594 160.078125 109.335938 164.871094 C 109.992188 169.664062 110.433594 174.472656 110.660156 179.304688 L 21.484375 179.304688 C 21.710938 174.472656 22.152344 169.664062 22.808594 164.871094 C 23.464844 160.078125 24.335938 155.324219 25.414062 150.609375 C 26.496094 145.894531 27.78125 141.238281 29.277344 136.636719 C 30.773438 132.039062 32.472656 127.515625 34.371094 123.066406 C 36.269531 118.617188 38.359375 114.261719 40.648438 110 C 42.933594 105.738281 45.40625 101.585938 48.0625 97.542969 C 50.71875 93.503906 53.550781 89.585938 56.558594 85.796875 C 59.5625 82.007812 62.730469 78.359375 66.0625 74.851562 Z M 21.484375 195.46875 L 110.660156 195.46875 C 110.433594 200.300781 109.992188 205.113281 109.335938 209.90625 C 108.675781 214.699219 107.808594 219.453125 106.730469 224.167969 C 105.648438 228.882812 104.359375 233.539062 102.863281 238.140625 C 101.367188 242.742188 99.671875 247.265625 97.773438 251.714844 C 95.871094 256.164062 93.777344 260.519531 91.492188 264.78125 C 89.203125 269.042969 86.730469 273.195312 84.070312 277.238281 C 81.414062 281.28125 78.582031 285.195312 75.574219 288.984375 C 72.566406 292.773438 69.394531 296.421875 66.0625 299.929688 C 62.730469 296.421875 59.5625 292.773438 56.558594 288.980469 C 53.550781 285.191406 50.71875 281.277344 48.0625 277.234375 C 45.40625 273.191406 42.933594 269.039062 40.648438 264.777344 C 38.359375 260.515625 36.269531 256.160156 34.371094 251.710938 C 32.472656 247.261719 30.773438 242.738281 29.277344 238.136719 C 27.78125 233.535156 26.496094 228.878906 25.414062 224.164062 C 24.335938 219.449219 23.464844 214.695312 22.808594 209.902344 C 22.152344 205.109375 21.710938 200.296875 21.484375 195.46875 Z M 179.273438 352.132812 C 174.625 351.914062 169.996094 351.503906 165.382812 350.894531 C 160.769531 350.289062 156.191406 349.488281 151.648438 348.496094 C 147.105469 347.5 142.609375 346.320312 138.164062 344.945312 C 133.71875 343.574219 129.339844 342.019531 125.027344 340.277344 C 120.710938 338.535156 116.480469 336.617188 112.328125 334.519531 C 108.175781 332.421875 104.117188 330.15625 100.15625 327.714844 C 96.195312 325.277344 92.34375 322.675781 88.601562 319.910156 C 84.859375 317.144531 81.242188 314.230469 77.746094 311.160156 C 77.835938 311.070312 77.917969 310.972656 78 310.875 C 78.75 310.128906 79.421875 309.3125 80.128906 308.53125 C 81.429688 307.101562 82.726562 305.679688 83.976562 304.21875 C 84.726562 303.304688 85.472656 302.363281 86.222656 301.441406 C 87.347656 300.070312 88.46875 298.714844 89.546875 297.328125 C 90.296875 296.324219 91.046875 295.316406 91.796875 294.332031 C 92.804688 292.976562 93.816406 291.621094 94.789062 290.238281 C 95.539062 289.179688 96.242188 288.101562 96.960938 287.023438 C 97.867188 285.660156 98.78125 284.300781 99.652344 282.90625 C 100.355469 281.796875 101.011719 280.660156 101.695312 279.558594 C 102.519531 278.171875 103.351562 276.773438 104.152344 275.355469 C 104.789062 274.21875 105.402344 273.066406 106.023438 271.914062 C 106.773438 270.488281 107.519531 269.066406 108.269531 267.621094 C 108.863281 266.460938 109.421875 265.269531 109.984375 264.09375 C 110.667969 262.632812 111.339844 261.171875 111.992188 259.699219 C 112.515625 258.511719 113.015625 257.3125 113.488281 256.109375 C 114.109375 254.613281 114.707031 253.117188 115.28125 251.617188 C 115.742188 250.414062 116.199219 249.207031 116.636719 247.984375 C 117.179688 246.449219 117.703125 244.902344 118.207031 243.351562 C 118.605469 242.136719 119 240.917969 119.375 239.695312 C 119.84375 238.109375 120.296875 236.515625 120.730469 234.917969 C 121.070312 233.703125 121.398438 232.492188 121.707031 231.261719 C 122.117188 229.625 122.453125 227.976562 122.851562 226.3125 C 123.105469 225.113281 123.382812 223.917969 123.601562 222.703125 C 123.9375 220.996094 124.222656 219.257812 124.511719 217.527344 C 124.714844 216.367188 124.925781 215.207031 125.105469 214.039062 C 125.375 212.1875 125.585938 210.292969 125.800781 208.460938 C 125.921875 207.394531 126.070312 206.332031 126.175781 205.269531 C 126.386719 203.148438 126.527344 201.007812 126.664062 198.867188 C 126.714844 198.042969 126.796875 197.234375 126.835938 196.402344 C 126.835938 196.101562 126.835938 195.796875 126.871094 195.496094 L 179.203125 195.496094 Z M 179.273438 179.285156 L 126.941406 179.285156 C 126.941406 178.984375 126.941406 178.683594 126.902344 178.378906 C 126.863281 177.554688 126.78125 176.738281 126.730469 175.90625 C 126.59375 173.773438 126.453125 171.636719 126.242188 169.511719 C 126.136719 168.441406 125.988281 167.390625 125.867188 166.320312 C 125.652344 164.457031 125.441406 162.574219 125.171875 160.742188 C 125 159.574219 124.78125 158.417969 124.582031 157.257812 C 124.289062 155.527344 124.003906 153.792969 123.667969 152.070312 C 123.421875 150.871094 123.144531 149.671875 122.917969 148.46875 C 122.550781 146.8125 122.167969 145.15625 121.773438 143.507812 C 121.464844 142.289062 121.136719 141.082031 120.800781 139.871094 C 120.363281 138.273438 119.914062 136.671875 119.445312 135.085938 C 119.070312 133.863281 118.695312 132.652344 118.273438 131.4375 C 117.773438 129.886719 117.25 128.328125 116.703125 126.792969 C 116.269531 125.574219 115.8125 124.375 115.355469 123.171875 C 114.78125 121.671875 114.179688 120.175781 113.558594 118.675781 C 113.058594 117.472656 112.558594 116.28125 112.058594 115.097656 C 111.40625 113.597656 110.734375 112.140625 110.050781 110.6875 C 109.492188 109.503906 108.929688 108.328125 108.351562 107.175781 C 107.605469 105.722656 106.855469 104.289062 106.105469 102.859375 C 105.492188 101.714844 104.878906 100.570312 104.242188 99.429688 C 103.441406 98.007812 102.609375 96.605469 101.769531 95.207031 C 101.105469 94.105469 100.445312 92.960938 99.75 91.890625 C 98.871094 90.496094 97.949219 89.117188 97.039062 87.742188 C 96.324219 86.675781 95.621094 85.605469 94.886719 84.558594 C 93.914062 83.164062 92.902344 81.800781 91.890625 80.429688 C 91.144531 79.433594 90.394531 78.425781 89.644531 77.4375 C 88.566406 76.035156 87.398438 74.664062 86.296875 73.289062 C 85.550781 72.375 84.800781 71.445312 84.050781 70.546875 C 82.800781 69.046875 81.496094 67.648438 80.1875 66.210938 C 79.476562 65.460938 78.800781 64.644531 78.074219 63.882812 L 77.820312 63.589844 C 81.316406 60.523438 84.929688 57.609375 88.671875 54.847656 C 92.410156 52.085938 96.257812 49.484375 100.214844 47.046875 C 104.175781 44.609375 108.226562 42.339844 112.378906 40.246094 C 116.527344 38.148438 120.757812 36.230469 125.066406 34.488281 C 129.378906 32.75 133.753906 31.191406 138.195312 29.820312 C 142.636719 28.449219 147.128906 27.265625 151.667969 26.273438 C 156.210938 25.277344 160.785156 24.476562 165.394531 23.867188 C 170.003906 23.257812 174.628906 22.84375 179.273438 22.625 Z M 195.542969 22.625 C 200.429688 22.847656 205.296875 23.285156 210.144531 23.9375 C 214.992188 24.59375 219.804688 25.460938 224.574219 26.542969 C 229.34375 27.625 234.058594 28.917969 238.710938 30.417969 C 243.367188 31.917969 247.949219 33.625 252.453125 35.53125 C 256.957031 37.441406 261.367188 39.542969 265.683594 41.84375 C 270 44.144531 274.207031 46.632812 278.300781 49.308594 C 282.398438 51.984375 286.367188 54.835938 290.207031 57.863281 C 294.050781 60.890625 297.75 64.082031 301.308594 67.4375 C 301.203125 67.550781 301.113281 67.671875 301.007812 67.78125 C 300.296875 68.589844 299.617188 69.421875 298.914062 70.246094 C 297.757812 71.59375 296.589844 72.941406 295.476562 74.320312 C 294.726562 75.242188 294.023438 76.183594 293.296875 77.121094 C 292.285156 78.4375 291.25 79.742188 290.300781 81.082031 C 289.550781 82.070312 288.886719 83.082031 288.171875 84.078125 C 287.253906 85.390625 286.324219 86.707031 285.441406 88.039062 C 284.75 89.082031 284.085938 90.136719 283.417969 91.191406 C 282.578125 92.527344 281.734375 93.851562 280.925781 95.199219 C 280.273438 96.285156 279.660156 97.371094 279.03125 98.472656 C 278.28125 99.820312 277.496094 101.175781 276.785156 102.539062 C 276.175781 103.660156 275.601562 104.785156 275.023438 105.929688 C 274.320312 107.292969 273.636719 108.667969 272.972656 110.050781 C 272.421875 111.203125 271.886719 112.359375 271.367188 113.523438 C 270.738281 114.925781 270.125 116.316406 269.527344 117.734375 C 269.027344 118.910156 268.546875 120.089844 268.082031 121.269531 C 267.511719 122.699219 266.972656 124.136719 266.441406 125.574219 C 266.015625 126.757812 265.578125 127.957031 265.167969 129.152344 C 264.667969 130.617188 264.191406 132.082031 263.738281 133.550781 C 263.363281 134.753906 262.988281 135.960938 262.628906 137.175781 C 262.195312 138.671875 261.796875 140.167969 261.402344 141.667969 C 261.085938 142.871094 260.757812 144.085938 260.464844 145.300781 C 260.097656 146.796875 259.769531 148.386719 259.4375 149.933594 C 259.183594 151.132812 258.914062 152.332031 258.691406 153.542969 C 258.375 155.132812 258.128906 156.75 257.867188 158.351562 C 257.671875 159.527344 257.460938 160.695312 257.296875 161.871094 C 257.050781 163.566406 256.871094 165.273438 256.675781 166.980469 C 256.546875 168.085938 256.398438 169.1875 256.285156 170.304688 C 256.113281 172.191406 255.996094 174.09375 255.875 175.988281 C 255.820312 176.925781 255.730469 177.859375 255.6875 178.804688 C 255.6875 178.96875 255.6875 179.132812 255.6875 179.292969 L 195.542969 179.292969 Z M 195.542969 352.167969 L 195.542969 195.46875 L 255.621094 195.46875 C 255.621094 195.632812 255.621094 195.789062 255.621094 195.945312 C 255.664062 196.898438 255.753906 197.824219 255.808594 198.761719 C 255.925781 200.671875 256.046875 202.566406 256.21875 204.453125 C 256.332031 205.570312 256.480469 206.699219 256.609375 207.777344 C 256.804688 209.476562 256.984375 211.1875 257.230469 212.878906 C 257.394531 214.0625 257.605469 215.222656 257.792969 216.398438 C 258.054688 218.007812 258.308594 219.617188 258.621094 221.214844 C 258.847656 222.425781 259.117188 223.625 259.371094 224.824219 C 259.703125 226.375 260.03125 227.921875 260.398438 229.457031 C 260.691406 230.679688 261.019531 231.878906 261.328125 233.082031 C 261.730469 234.582031 262.128906 236.078125 262.5625 237.578125 C 262.914062 238.78125 263.3125 239.980469 263.664062 241.179688 C 264.128906 242.675781 264.605469 244.128906 265.101562 245.605469 C 265.511719 246.796875 265.945312 247.976562 266.375 249.160156 C 266.90625 250.605469 267.445312 252.058594 268.019531 253.488281 C 268.484375 254.664062 268.960938 255.832031 269.453125 256.996094 C 270.054688 258.417969 270.671875 259.832031 271.300781 261.242188 C 271.824219 262.386719 272.355469 263.539062 272.902344 264.679688 C 273.566406 266.070312 274.253906 267.457031 274.964844 268.835938 C 275.53125 269.957031 276.109375 271.082031 276.707031 272.195312 C 277.457031 273.574219 278.207031 274.929688 278.953125 276.285156 C 279.578125 277.378906 280.191406 278.457031 280.835938 279.527344 C 281.652344 280.898438 282.503906 282.238281 283.351562 283.578125 C 284.011719 284.621094 284.667969 285.660156 285.351562 286.695312 C 286.242188 288.042969 287.171875 289.363281 288.105469 290.6875 C 288.800781 291.683594 289.492188 292.679688 290.21875 293.683594 C 291.199219 295.015625 292.234375 296.332031 293.214844 297.652344 C 293.960938 298.578125 294.652344 299.53125 295.394531 300.445312 C 296.507812 301.816406 297.640625 303.164062 298.816406 304.503906 C 299.519531 305.328125 300.207031 306.171875 300.941406 306.988281 C 301.03125 307.101562 301.121094 307.214844 301.226562 307.328125 C 297.671875 310.679688 293.972656 313.871094 290.132812 316.898438 C 286.296875 319.921875 282.328125 322.773438 278.238281 325.445312 C 274.144531 328.117188 269.941406 330.605469 265.628906 332.90625 C 261.316406 335.203125 256.90625 337.308594 252.40625 339.214844 C 247.90625 341.125 243.332031 342.828125 238.679688 344.328125 C 234.027344 345.832031 229.316406 347.125 224.550781 348.207031 C 219.785156 349.289062 214.980469 350.15625 210.136719 350.8125 C 205.292969 351.46875 200.429688 351.910156 195.542969 352.132812 Z M 312.625 295.652344 C 309.582031 292.207031 306.691406 288.640625 303.949219 284.953125 C 301.207031 281.265625 298.628906 277.46875 296.207031 273.5625 C 293.785156 269.65625 291.535156 265.65625 289.453125 261.558594 C 287.371094 257.460938 285.464844 253.285156 283.734375 249.027344 C 282.003906 244.769531 280.457031 240.449219 279.089844 236.058594 C 277.726562 231.671875 276.550781 227.234375 275.558594 222.746094 C 274.570312 218.261719 273.769531 213.738281 273.160156 209.183594 C 272.554688 204.628906 272.136719 200.058594 271.914062 195.46875 L 353.296875 195.46875 C 353.074219 200.054688 352.660156 204.628906 352.054688 209.179688 C 351.445312 213.734375 350.648438 218.257812 349.660156 222.742188 C 348.671875 227.230469 347.496094 231.667969 346.132812 236.054688 C 344.769531 240.441406 343.222656 244.761719 341.496094 249.019531 C 339.765625 253.277344 337.859375 257.453125 335.78125 261.550781 C 333.699219 265.644531 331.449219 269.648438 329.03125 273.554688 C 326.613281 277.460938 324.035156 281.257812 321.292969 284.945312 C 318.554688 288.632812 315.664062 292.199219 312.625 295.644531 Z M 271.914062 179.304688 C 272.136719 174.714844 272.554688 170.144531 273.164062 165.589844 C 273.769531 161.035156 274.570312 156.515625 275.5625 152.03125 C 276.550781 147.542969 277.730469 143.105469 279.09375 138.71875 C 280.457031 134.332031 282.007812 130.007812 283.734375 125.753906 C 285.464844 121.496094 287.371094 117.320312 289.453125 113.222656 C 291.539062 109.128906 293.789062 105.128906 296.207031 101.222656 C 298.628906 97.316406 301.210938 93.519531 303.949219 89.832031 C 306.691406 86.144531 309.582031 82.578125 312.625 79.136719 C 315.664062 82.582031 318.554688 86.144531 321.292969 89.835938 C 324.03125 93.523438 326.613281 97.320312 329.03125 101.226562 C 331.449219 105.132812 333.699219 109.132812 335.777344 113.226562 C 337.859375 117.324219 339.765625 121.5 341.492188 125.757812 C 343.222656 130.011719 344.765625 134.335938 346.128906 138.722656 C 347.492188 143.109375 348.671875 147.546875 349.660156 152.03125 C 350.648438 156.519531 351.445312 161.039062 352.054688 165.59375 C 352.660156 170.144531 353.074219 174.71875 353.296875 179.304688 Z M 271.914062 179.304688 "/></g></g></svg>